<?xml version="1.0" standalone="no"?>
<!DOCTYPE svg PUBLIC "-//W3C//DTD SVG 20010904//EN"
 "http://www.w3.org/TR/2001/REC-SVG-20010904/DTD/svg10.dtd">
<svg version="1.0" xmlns="http://www.w3.org/2000/svg"
 width="1024.000000pt" height="1024.000000pt" viewBox="0 0 1024.000000 1024.000000"
 preserveAspectRatio="xMidYMid meet">

<g transform="translate(0.000000,1024.000000) scale(0.100000,-0.100000)"
fill="#000000" stroke="none">
<path d="M5600 9179 c-85 -22 -179 -64 -243 -107 l-43 -30 -79 39 c-240 118
-547 108 -769 -26 -51 -31 -67 -35 -125 -35 -222 -1 -480 -200 -536 -415 -8
-33 -19 -61 -24 -63 -37 -12 -290 -230 -422 -361 -197 -198 -315 -386 -371
-591 -30 -111 -32 -294 -4 -387 16 -53 17 -71 7 -126 -19 -111 -15 -318 8
-434 22 -104 69 -240 117 -334 73 -145 217 -317 339 -404 71 -51 222 -128 283
-144 38 -11 45 -18 77 -79 18 -37 43 -80 53 -95 17 -26 18 -33 6 -84 -15 -64
-6 -130 25 -191 25 -49 102 -135 145 -161 32 -20 33 -22 29 -78 -7 -110 -24
-221 -44 -300 -11 -43 -22 -79 -23 -80 -1 -1 -18 2 -37 8 -75 23 -177 -35
-201 -113 -15 -49 14 -37 -402 -177 -181 -61 -333 -117 -340 -125 -6 -8 -48
-24 -94 -35 -45 -12 -106 -30 -135 -41 -76 -29 -77 -25 -11 25 32 25 67 53 77
61 102 84 124 94 487 215 330 110 329 109 336 134 4 11 6 21 6 22 -3 6 91 93
100 93 5 0 6 5 2 12 -4 7 -3 8 5 4 6 -4 17 -4 24 2 7 5 36 17 65 28 47 16 53
22 62 56 6 21 12 55 15 77 2 21 6 59 10 83 l7 45 -66 66 c-48 48 -77 88 -104
144 -34 73 -37 85 -38 176 -1 73 -5 101 -17 115 -8 9 -18 29 -22 44 -9 37 -28
51 -115 87 -41 17 -106 49 -144 71 -37 22 -72 38 -76 35 -5 -3 -12 0 -16 6 -5
8 -2 10 7 4 8 -4 -2 6 -21 23 -28 24 -38 28 -50 19 -13 -10 -13 -10 -3 4 10
13 5 22 -35 55 -26 21 -51 38 -55 36 -5 -1 -6 2 -3 7 4 5 -7 25 -23 43 -71 81
-117 152 -177 272 -35 72 -64 136 -64 144 0 7 -5 10 -12 6 -6 -4 -8 -3 -4 4 3
5 -7 61 -23 124 -40 153 -54 294 -44 426 4 59 7 113 6 119 0 7 3 10 8 7 14 -8
11 14 -12 107 -18 71 -21 102 -16 199 9 184 61 340 171 518 121 195 245 330
496 536 85 71 160 133 165 138 22 21 -189 -90 -330 -173 -448 -266 -908 -700
-1204 -1139 -104 -153 -190 -305 -271 -475 -65 -136 -75 -161 -138 -330 -79
-212 -144 -470 -183 -720 -27 -177 -39 -677 -19 -845 39 -341 98 -605 198
-887 73 -203 214 -496 310 -645 l57 -87 29 52 c16 29 58 100 93 159 54 92 62
110 52 126 -10 16 -7 27 21 68 88 129 230 246 389 321 92 43 259 106 328 123
48 13 54 12 74 -6 23 -21 57 -80 40 -70 -13 8 -15 -35 -3 -49 46 -52 129 -459
120 -590 l-3 -50 -45 67 c-25 37 -47 68 -50 68 -5 -1 -70 -105 -70 -113 0 -3
18 -27 40 -52 32 -37 40 -54 40 -86 0 -36 -2 -39 -29 -39 -15 0 -50 -3 -76 -7
l-48 -6 7 67 c5 50 4 66 -5 61 -14 -10 -29 13 -29 45 0 14 11 70 25 124 14 55
23 101 22 102 -2 2 -32 -37 -67 -86 -36 -48 -68 -86 -73 -83 -4 2 -6 1 -5 -4
3 -7 -79 -173 -86 -173 -10 0 18 143 43 220 33 98 40 140 18 107 -7 -10 -22
-31 -35 -45 -30 -36 -85 -152 -113 -237 -22 -66 -41 -95 -62 -95 -13 0 1 167
19 238 8 30 32 93 54 139 22 46 40 90 40 99 0 8 4 12 10 9 5 -3 7 0 5 8 -3 7
3 21 14 31 11 10 18 22 16 26 -3 5 -19 -5 -36 -21 -17 -16 -36 -26 -42 -22 -5
3 -7 2 -4 -4 3 -5 -15 -30 -40 -54 -42 -40 -44 -41 -23 -10 l23 34 -27 -18
c-23 -16 -26 -16 -20 -1 13 34 -24 13 -58 -32 -7 -9 -24 -26 -37 -37 l-24 -20
19 30 c27 44 126 165 168 204 24 23 32 37 24 42 -14 9 -40 0 -33 -12 3 -4 -18
-20 -47 -35 -84 -42 -136 -82 -219 -165 -95 -97 -146 -173 -238 -356 l-70
-141 -169 -4 c-186 -3 -205 -9 -242 -71 -19 -30 -20 -53 -20 -358 0 -323 0
-326 23 -360 35 -52 57 -59 205 -59 l132 0 0 -418 c0 -459 2 -481 59 -559 32
-45 95 -92 151 -113 76 -30 1022 -22 1052 8 5 5 -61 34 -145 67 -83 32 -156
62 -160 65 -29 25 697 83 1373 111 320 13 1372 7 1710 -10 558 -29 1148 -81
1135 -100 -2 -4 -81 -34 -175 -66 -128 -44 -166 -61 -151 -67 52 -19 301 -29
636 -26 l360 3 57 28 c69 34 139 109 164 175 16 42 19 92 22 475 l3 427 135 0
c154 0 192 11 224 62 19 31 20 50 20 351 0 344 -2 359 -54 407 -27 24 -32 25
-199 28 l-172 3 -54 105 c-152 295 -337 511 -526 617 -152 85 -141 70 -106
158 17 41 33 95 36 120 11 80 14 86 49 103 53 25 79 20 230 -41 159 -65 214
-73 263 -37 30 22 74 120 288 639 125 303 193 465 247 589 21 49 35 93 31 97
-10 9 -224 101 -498 214 -115 48 -309 129 -431 181 -121 52 -225 94 -231 94
-5 0 -49 -82 -98 -182 -48 -101 -182 -375 -296 -609 -114 -235 -211 -443 -214
-463 -9 -44 14 -113 48 -144 13 -12 85 -49 161 -81 150 -65 179 -85 207 -146
37 -80 28 -116 -83 -340 -41 -83 -120 -250 -175 -370 -152 -333 -194 -423
-233 -502 l-35 -71 -32 27 -33 27 79 170 c43 93 93 201 111 239 35 75 120 260
202 439 27 59 48 110 46 111 -17 16 -130 74 -221 114 -61 27 -177 80 -257 119
-129 61 -301 138 -385 171 -16 6 -37 24 -47 40 -9 16 -28 37 -43 47 -28 18
-102 24 -146 12 -25 -7 -26 -6 -42 69 -9 42 -16 77 -14 78 1 1 17 12 35 24 18
13 34 22 36 20 1 -2 8 -23 14 -45 12 -40 14 -42 64 -48 62 -9 102 -28 148 -72
21 -20 78 -51 145 -79 159 -67 368 -172 420 -212 25 -19 45 -32 45 -29 0 3 15
-8 32 -25 18 -16 36 -29 41 -29 5 0 22 -10 37 -23 31 -24 145 -97 153 -97 9 0
27 62 20 73 -4 6 -1 7 7 2 10 -6 12 -4 7 9 -4 9 -3 15 2 12 12 -8 22 34 14 64
-12 49 -96 112 -125 94 -6 -4 -8 -3 -5 3 3 5 -23 20 -58 33 -137 51 -223 137
-245 247 -14 65 -6 102 41 196 17 32 27 63 23 69 -4 6 -3 8 2 5 6 -3 21 18 34
46 13 29 72 150 132 270 59 119 107 227 105 240 -1 13 3 21 11 19 18 -3 35 47
22 63 -8 10 -8 15 1 21 7 4 9 3 5 -4 -3 -6 -2 -13 3 -16 12 -8 54 82 45 96 -4
6 -3 8 3 5 5 -3 33 43 62 104 45 95 51 112 39 127 -11 15 -11 15 3 5 13 -11
18 -9 28 13 9 21 9 30 -1 43 -11 14 -11 14 3 4 13 -11 19 -6 37 33 12 25 19
50 16 56 -4 7 -2 8 4 4 6 -4 18 8 28 29 9 20 22 34 28 31 6 -2 54 -22 106 -44
132 -55 283 -122 295 -132 6 -4 28 -13 50 -20 61 -20 194 -74 278 -114 41 -20
80 -36 85 -36 6 0 47 -15 91 -34 44 -18 82 -31 85 -28 4 3 6 0 6 -7 0 -7 5 -9
11 -6 6 4 16 0 22 -8 10 -13 94 -52 264 -123 l33 -14 -34 -93 c-18 -50 -79
-203 -135 -339 -55 -136 -114 -283 -131 -327 -16 -45 -39 -102 -51 -128 -12
-27 -33 -77 -46 -113 -13 -35 -33 -82 -43 -105 -49 -109 -61 -145 -54 -156 4
-7 3 -10 -3 -6 -10 6 -71 -129 -66 -145 2 -5 -2 -8 -8 -8 -5 0 -7 -5 -3 -12 4
-7 3 -8 -4 -4 -6 3 -16 -3 -22 -15 -16 -30 -91 -60 -161 -64 -54 -4 -71 1
-198 55 -77 33 -146 60 -154 60 -9 0 -22 -25 -35 -62 -11 -35 -23 -70 -27 -80
-5 -12 10 -26 67 -59 40 -24 98 -63 127 -86 45 -35 58 -40 70 -30 14 10 14 10
4 -4 -10 -13 -5 -23 32 -59 40 -40 51 -43 46 -17 -1 5 3 6 9 2 8 -5 8 -11 0
-20 -9 -11 -1 -27 37 -72 26 -32 88 -125 137 -206 l90 -148 17 23 c44 58 195
338 257 478 189 423 291 889 306 1395 10 346 -34 670 -139 1036 -177 610 -466
1098 -925 1560 -224 225 -431 390 -690 553 -129 80 -357 206 -373 206 -4 0 -7
-22 -7 -49 0 -27 -5 -62 -11 -78 -6 -15 -14 -75 -18 -133 -7 -110 -30 -180
-73 -220 -19 -17 -19 -20 -3 -66 11 -30 18 -86 20 -144 1 -52 9 -133 18 -180
33 -163 20 -331 -34 -458 -11 -24 -16 -49 -12 -54 3 -6 2 -8 -4 -5 -5 3 -20
-13 -31 -37 -21 -42 -22 -45 -7 -142 18 -117 19 -301 4 -411 -6 -43 -12 -87
-13 -98 -1 -11 -8 -30 -14 -42 -7 -12 -16 -39 -21 -60 l-8 -38 -27 57 c-25 52
-26 61 -17 120 27 174 24 311 -11 525 l-12 71 46 90 c63 123 82 214 75 356 -3
61 -14 144 -25 184 -15 59 -17 82 -9 118 11 48 0 119 -29 179 -15 32 -14 34
11 61 15 16 39 52 53 79 21 42 26 65 27 145 1 66 7 107 20 135 10 22 20 76 22
120 12 187 -84 377 -220 435 -42 18 -64 22 -117 17 -65 -5 -65 -5 -105 34
-108 105 -285 143 -455 98z m243 -126 c39 -12 54 -25 87 -71 52 -72 73 -145
74 -252 0 -72 -4 -93 -27 -141 -15 -30 -37 -65 -50 -77 l-23 -22 4 113 c3 79
0 136 -12 190 -13 64 -39 137 -49 137 -1 0 -2 -25 -2 -54 0 -79 -16 -88 -50
-31 -20 35 -30 44 -38 36 -9 -9 -9 -14 -1 -19 14 -9 18 -161 5 -193 -10 -27
-9 -29 -36 66 -20 73 -65 141 -88 137 -10 -2 -27 4 -39 13 -30 21 -45 19 -51
-6 -6 -21 -7 -20 -33 10 -14 18 -28 30 -30 28 -3 -2 4 -24 14 -48 21 -49 37
-119 24 -104 -5 6 -30 40 -56 78 -26 37 -59 75 -72 84 -19 12 -22 18 -12 23
27 15 159 20 233 9 42 -6 79 -9 81 -6 8 8 -92 55 -131 62 l-40 7 50 19 c99 38
174 42 268 12z m-824 -28 c79 -19 188 -75 227 -117 l29 -31 -35 20 c-41 24
-87 39 -150 49 l-45 7 83 -62 c46 -34 81 -65 78 -68 -3 -4 -1 -12 6 -20 24
-29 -4 -24 -63 11 -34 20 -67 35 -74 32 -7 -2 -25 4 -41 15 -53 35 -47 20 12
-28 56 -46 61 -63 13 -45 -13 6 -46 28 -74 51 -62 53 -90 67 -139 75 l-38 6
17 -27 c10 -16 40 -56 67 -90 49 -62 53 -71 20 -54 -28 15 -171 42 -262 49
-229 19 -509 -7 -604 -54 -27 -14 -51 -23 -53 -20 -7 7 121 99 172 122 79 36
162 54 255 54 68 0 91 4 115 20 18 12 47 20 73 20 47 0 57 16 15 26 -16 3 -32
7 -38 8 -17 5 53 36 112 50 78 19 243 19 322 1z m1217 -124 c109 -67 162 -277
100 -399 -15 -29 -28 -52 -30 -52 -3 0 -2 30 0 68 4 52 3 64 -6 52 -10 -12
-11 -12 -5 5 4 11 9 45 11 75 3 46 2 50 -6 25 -5 -16 -23 -46 -39 -65 l-30
-35 3 58 c1 31 -2 57 -6 57 -4 0 -8 -7 -8 -15 0 -8 -4 -15 -8 -15 -5 0 -7 35
-4 78 4 70 -2 114 -23 165 -10 23 11 22 51 -2z m-996 -96 c20 -24 6 -28 -15
-5 -10 11 -13 20 -8 20 6 0 16 -7 23 -15z m-582 -61 c63 -13 202 -66 202 -78
0 -1 -33 6 -72 16 -130 32 -238 48 -347 49 -58 1 -97 3 -86 6 11 3 24 9 30 14
15 15 190 10 273 -7z m827 -128 c109 -50 182 -150 192 -265 l5 -56 -25 50
c-26 53 -70 98 -128 133 -51 31 -68 28 -37 -5 69 -76 80 -127 13 -65 -85 80
-137 122 -144 117 -5 -2 -14 2 -21 10 -7 8 -20 15 -28 15 -10 0 7 -23 43 -60
60 -61 64 -76 10 -40 -58 38 -48 19 25 -49 l73 -69 -21 -22 c-12 -13 -19 -27
-16 -31 3 -5 -23 2 -58 15 -35 13 -81 26 -103 29 l-40 6 41 -13 c54 -18 97
-41 114 -61 24 -29 5 -24 -85 21 -49 24 -103 44 -119 44 -29 1 -30 1 -12 15
11 9 41 15 68 15 47 0 63 12 32 24 -30 11 -199 5 -239 -9 -35 -12 -38 -12 -21
1 11 7 24 14 29 14 4 0 6 4 2 10 -7 12 63 48 140 72 l60 18 -51 -5 c-65 -7
-166 -39 -221 -71 -24 -14 -43 -20 -43 -15 0 20 113 123 154 142 35 16 37 19
16 19 -25 1 -25 1 -5 16 107 83 281 105 400 50z m-960 14 c4 -6 -9 -10 -33
-10 -57 0 -197 -26 -272 -50 -97 -32 -243 -103 -329 -161 -406 -275 -638 -556
-758 -919 -42 -129 -41 -125 -49 -118 -9 10 16 170 38 238 30 96 99 224 172
321 85 113 278 298 413 395 106 77 184 137 233 181 49 45 208 107 320 126 53
9 259 7 265 -3z m100 -130 c3 -5 -23 -23 -59 -39 -89 -40 -138 -75 -231 -167
-44 -44 -101 -97 -128 -118 -57 -47 -55 -58 3 -21 57 36 115 60 218 91 48 14
99 29 115 34 50 16 28 0 -50 -37 -170 -80 -358 -205 -510 -340 -46 -40 -74
-59 -79 -52 -8 14 53 132 113 216 57 80 204 231 261 268 48 31 53 39 18 25
-97 -36 -270 -147 -356 -226 -118 -110 -230 -273 -297 -433 -24 -58 -51 -113
-60 -121 -14 -14 -15 -9 -10 45 17 192 131 378 357 579 44 40 55 53 34 43 -56
-29 -159 -99 -186 -129 -16 -16 -32 -27 -37 -24 -4 3 -85 -70 -180 -163 -155
-152 -169 -164 -142 -117 83 148 235 322 386 442 131 105 329 199 495 234 93
20 315 27 325 10z m906 -37 c13 -16 12 -17 -3 -4 -10 7 -18 15 -18 17 0 8 8 3
21 -13z m474 -202 c137 -68 280 -262 258 -349 -5 -22 -8 -19 -26 28 -27 74
-102 200 -96 163 8 -51 -17 -56 -37 -8 -18 44 -26 45 -13 3 12 -42 12 -128 0
-128 -5 0 -12 -10 -14 -22 -2 -13 -5 1 -6 29 -4 157 -101 290 -229 313 -43 8
-40 9 26 6 57 -3 86 -10 137 -35z m-129 -90 c49 -22 56 -32 60 -83 l3 -39 -34
29 c-33 30 -101 59 -112 48 -11 -11 -34 24 -28 44 8 26 55 26 111 1z m-1076
-15 c0 -2 -28 -13 -62 -26 -35 -12 -92 -39 -127 -59 -35 -20 -80 -45 -101 -57
-38 -21 -93 -59 -75 -52 6 2 36 16 69 31 32 16 61 26 63 23 3 -2 -15 -13 -39
-24 -56 -24 -268 -161 -268 -173 0 -10 1 -10 185 80 154 76 369 161 402 159
10 -1 29 2 43 5 39 10 -134 -71 -245 -115 -225 -89 -432 -215 -535 -324 l-45
-47 51 35 c189 132 321 218 359 232 29 11 -49 -56 -135 -115 -181 -125 -434
-353 -524 -471 -15 -21 -32 -35 -37 -32 -5 3 -10 0 -10 -5 -1 -6 -3 -15 -4
-21 -1 -5 -3 -13 -4 -17 0 -4 -6 -2 -12 4 -9 9 -3 26 21 70 l33 58 -42 -45
c-40 -44 -41 -44 -35 -15 9 40 34 76 47 68 5 -3 7 -1 3 5 -3 6 -2 13 4 17 6 4
8 11 5 16 -4 5 -1 9 5 9 7 0 10 6 7 13 -2 6 -10 11 -16 10 -15 -4 -14 2 4 38
9 17 21 27 27 23 7 -4 8 -3 4 4 -4 6 0 25 9 42 8 16 14 30 11 30 -2 0 -30 -33
-62 -72 -67 -83 -239 -286 -262 -308 -8 -8 -1 5 14 30 16 25 34 50 40 55 18
16 26 47 12 42 -7 -2 -12 -11 -10 -20 2 -11 -2 -15 -12 -11 -9 3 -17 -2 -20
-14 -4 -11 -14 -26 -23 -34 -18 -14 36 74 102 167 53 74 299 344 403 443 117
110 291 222 416 269 107 40 366 96 366 79z m695 -299 c-11 -7 -60 -23 -110
-36 -165 -41 -460 -155 -448 -174 3 -6 1 -7 -5 -3 -14 8 -55 -18 -45 -28 4 -4
0 -4 -9 -1 -17 7 -84 -22 -74 -32 3 -3 17 2 31 11 14 9 25 12 25 7 0 -5 -13
-14 -30 -21 -16 -7 -27 -16 -24 -21 3 -5 -2 -9 -11 -9 -9 0 -14 -4 -10 -9 3
-5 -3 -12 -12 -14 -15 -4 -15 -5 2 -6 11 0 47 11 80 25 206 86 342 124 453
124 70 0 99 -15 45 -23 -16 -2 17 -5 73 -6 106 -1 214 -18 214 -32 0 -5 -27
-9 -61 -9 -119 0 -330 -55 -487 -126 -226 -103 -456 -290 -628 -510 -36 -47
-69 -83 -72 -80 -2 3 1 12 8 21 7 8 8 15 2 15 -5 0 -17 -11 -25 -24 -9 -13
-33 -41 -53 -62 l-37 -39 23 38 c33 57 17 44 -36 -28 -26 -36 -50 -63 -52 -60
-5 4 18 45 146 268 47 81 89 147 94 147 5 0 7 4 4 8 -11 19 183 300 253 366
49 47 36 49 -33 5 -35 -22 -103 -81 -151 -130 -85 -88 -92 -93 -53 -36 11 15
15 27 10 27 -6 0 -12 -4 -14 -9 -1 -5 -34 -44 -73 -87 -38 -42 -79 -89 -90
-105 -11 -15 -50 -60 -86 -101 -80 -90 -171 -208 -233 -308 -64 -101 -52 -46
26 119 26 57 47 106 44 108 -2 3 -12 -11 -21 -31 -10 -20 -22 -36 -27 -36 -7
0 -7 4 0 13 5 6 31 53 57 102 48 90 113 195 167 270 38 52 -151 -145 -199
-207 -20 -26 -39 -46 -41 -43 -6 6 59 134 75 147 7 6 13 15 13 21 0 6 -11 0
-25 -13 -14 -13 -25 -27 -25 -31 0 -5 -10 -24 -22 -43 -13 -19 -36 -56 -51
-81 -16 -25 -33 -45 -38 -45 -6 0 1 15 14 33 13 17 37 55 52 82 35 64 10 36
-80 -90 -36 -49 -71 -99 -80 -110 l-15 -20 6 20 c5 16 4 17 -4 5 -6 -8 -8 -18
-5 -22 2 -5 -6 -24 -20 -41 -31 -41 -97 -169 -97 -189 0 -8 -7 -23 -15 -34
-15 -18 -16 -17 -10 13 9 45 58 169 99 249 103 205 310 425 541 577 96 63 265
152 265 140 0 -5 -14 -16 -31 -26 -18 -10 -30 -20 -27 -22 2 -3 60 24 129 59
156 80 280 130 393 156 74 18 309 44 436 49 32 1 33 0 15 -12z m-1716 -61 c-7
-14 -16 -26 -20 -26 -5 0 -15 -12 -23 -27 -8 -16 -15 -23 -16 -17 0 14 60 107
66 101 3 -2 -1 -16 -7 -31z m3521 -41 c13 -14 21 -25 18 -25 -2 0 -15 11 -28
25 -13 14 -21 25 -18 25 2 0 15 -11 28 -25z m-209 -42 c13 -16 12 -17 -3 -4
-10 7 -18 15 -18 17 0 8 8 3 21 -13z m-3725 -181 c-65 -103 -151 -310 -175
-422 -61 -282 -5 -599 143 -804 20 -27 36 -47 36 -44 0 3 -9 34 -19 69 -32
107 -33 139 -2 58 61 -161 132 -276 240 -386 39 -40 68 -73 65 -73 -16 0 -184
118 -231 162 -195 185 -328 512 -326 798 2 190 54 352 171 530 45 70 108 150
118 150 2 0 -7 -17 -20 -38z m4245 -89 c13 -16 12 -17 -3 -4 -10 7 -18 15 -18
17 0 8 8 3 21 -13z m-914 -376 c7 -24 29 -61 52 -86 23 -24 41 -47 41 -51 0
-3 -15 -14 -34 -22 -24 -12 -39 -29 -52 -62 -11 -25 -21 -46 -24 -46 -4 0 -12
16 -19 35 -7 20 -28 52 -47 71 l-35 34 20 29 c12 16 21 34 21 39 0 6 5 14 12
18 7 5 8 3 3 -6 -5 -8 -4 -11 3 -6 6 4 8 14 5 23 -4 10 -2 14 4 10 12 -8 23
14 23 44 0 34 15 20 27 -24z m-96 -64 c13 -16 12 -17 -3 -4 -10 7 -18 15 -18
17 0 8 8 3 21 -13z m-2808 -162 c-38 -70 -55 -88 -31 -35 14 33 59 104 65 104
2 0 -13 -31 -34 -69z m1307 -282 c0 -15 -19 -49 -28 -49 -12 0 -33 40 -27 50
8 14 55 13 55 -1z m928 -16 c2 -9 -7 -13 -27 -13 -30 0 -39 9 -24 24 11 10 46
3 51 -11z m1012 -19 c0 -8 4 -22 9 -32 5 -9 12 -25 15 -35 4 -11 11 -15 17
-11 8 4 9 3 5 -4 -4 -7 1 -20 11 -31 22 -22 96 -61 118 -61 26 0 8 -17 -26
-24 -66 -13 -126 -80 -149 -167 l-12 -44 -13 45 c-7 25 -17 56 -23 70 -18 41
-74 87 -122 100 l-45 13 42 14 c45 15 137 98 128 114 -4 5 -2 9 4 9 6 0 13 16
17 35 6 33 24 40 24 9z m-1822 -24 l23 -29 -37 -16 c-20 -8 -64 -20 -99 -26
-55 -11 -70 -10 -135 10 l-73 22 34 35 c30 32 34 33 37 15 4 -22 34 -45 74
-55 38 -9 95 17 115 52 19 34 29 32 61 -8z m895 1 c23 -40 22 -50 -10 -62 -56
-21 -171 -7 -216 26 -15 11 -16 17 -7 34 12 24 30 28 30 6 0 -26 45 -46 97
-43 43 3 50 6 63 35 8 18 17 33 20 33 3 0 13 -13 23 -29z m-375 -129 c34 -70
65 -139 68 -154 5 -23 2 -27 -26 -33 -51 -11 -110 39 -60 52 27 7 26 16 -17
85 -29 46 -38 73 -41 119 -2 32 0 59 4 58 5 0 37 -58 72 -127z m-2858 -67 c12
-25 32 -53 44 -62 39 -31 39 -41 1 -80 -20 -20 -33 -43 -30 -50 2 -8 1 -12 -4
-9 -5 3 -11 -1 -15 -9 -8 -21 -24 -19 -31 5 -4 11 -11 18 -16 15 -5 -3 -6 2
-2 11 4 12 3 15 -5 10 -8 -4 -10 -2 -6 7 6 18 -44 60 -60 50 -16 -10 16 30 37
46 10 7 16 20 13 28 -3 8 -2 12 3 9 13 -8 34 21 25 35 -4 8 -3 9 4 5 8 -5 12
0 12 13 0 31 6 26 30 -24z m3786 30 c4 -8 9 -13 13 -11 3 2 12 -2 19 -10 7 -8
10 -14 6 -14 -3 0 -1 -7 6 -15 10 -13 9 -19 -6 -37 -11 -12 -14 -18 -7 -15 6
4 14 3 17 -2 4 -5 -2 -8 -11 -6 -10 1 -28 -7 -40 -18 -13 -11 -23 -17 -23 -13
0 5 -6 3 -14 -3 -10 -8 -16 -9 -21 -1 -4 6 -1 9 7 8 7 -2 13 4 13 12 0 8 -7
14 -15 12 -8 -2 -12 0 -8 4 10 9 -11 35 -23 28 -5 -3 -5 6 0 19 6 14 7 28 3
32 -3 3 1 3 10 0 11 -4 22 2 33 19 20 29 33 33 41 11z m-459 -41 c61 -65 93
-154 92 -259 l0 -60 -25 85 c-33 110 -79 195 -123 228 -57 41 -57 42 -17 42
31 0 45 -7 73 -36z m-3463 -72 c3 -5 -1 -9 -9 -9 -8 0 -12 4 -9 9 3 4 7 8 9 8
2 0 6 -4 9 -8z m400 -190 c3 -5 -1 -9 -9 -9 -8 0 -12 4 -9 9 3 4 7 8 9 8 2 0
6 -4 9 -8z m4403 -156 c54 -24 193 -83 308 -131 368 -153 438 -183 515 -219
41 -20 64 -33 50 -30 -31 7 -416 161 -714 284 -120 49 -221 90 -225 90 -3 0
-21 -35 -40 -78 -19 -42 -59 -126 -89 -187 -161 -331 -404 -864 -409 -900 -6
-45 11 -90 50 -132 28 -31 12 -29 -49 6 -62 36 -89 83 -82 145 5 43 52 149
218 491 267 552 345 705 357 705 7 0 57 -20 110 -44z m-4656 -67 c6 -23 18
-49 27 -56 11 -9 12 -12 2 -7 -10 5 -8 -1 5 -17 38 -46 70 -70 117 -86 47 -17
47 -33 2 -33 -57 0 -142 -104 -159 -195 l-8 -40 -12 45 c-31 112 -79 170 -157
190 -24 6 -47 12 -53 14 -5 1 11 8 35 14 61 15 126 73 156 138 13 29 24 57 23
61 -8 46 11 22 22 -28z m3949 5 c0 -25 33 -98 54 -119 22 -23 70 -50 105 -61
l36 -11 -44 -13 c-79 -25 -130 -92 -157 -205 -7 -32 -7 -32 -24 33 -7 26 -15
40 -22 36 -6 -4 -9 -1 -6 7 7 20 -21 71 -34 63 -6 -4 -8 -3 -5 3 11 17 -36 52
-81 59 -41 6 -59 24 -24 24 25 0 102 51 134 88 14 17 32 54 39 81 13 51 29 59
29 15z m-3569 -16 c16 -18 29 -35 29 -39 0 -3 -16 -20 -35 -39 l-34 -33 -38
36 -37 37 34 35 c19 19 39 35 44 35 4 0 21 -15 37 -32z m3495 -77 c-12 -11
-19 -12 -27 -4 -8 8 -8 11 2 10 8 -1 14 3 14 8 0 6 -4 9 -8 7 -5 -1 -6 2 -2 8
5 8 11 7 21 -1 13 -11 13 -14 0 -28z m-983 -36 c45 -3 69 -11 107 -35 28 -18
50 -34 50 -37 0 -3 -12 3 -27 13 -64 42 -85 48 -133 38 -25 -5 -57 -7 -70 -3
-46 13 -98 9 -165 -12 -105 -32 -105 -32 -20 11 75 38 84 40 140 34 33 -3 86
-8 118 -9z m1846 -131 c12 -15 21 -38 21 -51 0 -14 -30 -91 -66 -171 -245
-541 -277 -609 -300 -629 -14 -13 -33 -23 -42 -23 -31 0 -62 29 -62 58 0 15
43 122 96 237 53 116 119 262 146 325 121 277 156 319 207 254z m-3454 -27
c59 -59 59 -135 -1 -195 -31 -31 -39 -34 -76 -29 -49 7 -84 38 -102 92 -42
122 91 220 179 132z m-1738 -19 c-3 -8 -6 -5 -6 6 -1 11 2 17 5 13 3 -3 4 -12
1 -19z m3431 -5 c17 -3 32 -8 32 -12 0 -14 -146 -55 -185 -53 -55 3 -226 53
-219 63 6 10 319 11 372 2z m2052 -85 c17 -18 20 -32 17 -58 -3 -19 -69 -177
-147 -350 -152 -340 -184 -406 -208 -432 -33 -39 -102 -10 -102 42 0 15 31 92
68 171 38 79 115 249 172 377 120 272 147 306 200 250z m-4306 -79 c10 -17 23
-28 30 -26 25 10 9 -39 -25 -74 l-35 -36 -37 40 c-20 23 -37 43 -37 46 0 7 73
81 80 81 3 0 14 -14 24 -31z m-1177 -41 c-2 -13 -4 -3 -4 22 0 25 2 35 4 23 2
-13 2 -33 0 -45z m1222 48 c11 -14 6 -15 -27 -7 -4 1 8 21 12 21 2 0 9 -6 15
-14z m4551 -36 c36 -36 26 -76 -91 -347 -62 -142 -126 -292 -144 -334 -73
-168 -95 -199 -144 -199 -24 0 -51 36 -51 67 0 12 16 55 34 95 19 40 96 213
171 383 153 351 176 384 225 335z m-5421 -134 l43 -43 -32 -23 c-17 -12 -29
-27 -27 -34 3 -7 -8 -11 -28 -12 -23 0 -32 4 -31 15 1 9 -6 15 -16 15 -10 -1
-16 3 -15 10 1 6 -6 10 -15 10 -16 -2 -16 0 -1 30 10 17 16 34 15 38 -1 4 5 5
13 2 8 -3 19 3 27 15 7 12 15 21 18 21 3 0 25 -20 49 -44z m39 -3 c-6 -7 -12
-13 -13 -13 -2 0 -5 6 -8 13 -3 7 3 13 14 13 13 0 15 -3 7 -13z m-701 -75 c-3
-8 -6 -5 -6 6 -1 11 2 17 5 13 3 -3 4 -12 1 -19z m4328 12 c-3 -5 -1 -10 6
-10 17 0 79 -60 79 -76 0 -6 -7 -17 -15 -24 -8 -7 -12 -17 -8 -24 3 -6 2 -8
-2 -3 -5 4 -19 -2 -31 -14 l-22 -21 -12 21 c-6 12 -16 18 -22 15 -7 -5 -8 -2
-4 5 5 8 0 14 -13 18 -29 7 -26 24 9 58 17 16 28 35 26 41 -3 7 -2 15 1 18 10
10 15 7 8 -4z m-3278 -26 c-10 -10 12 -44 28 -44 8 0 19 -9 25 -20 9 -16 4
-26 -31 -61 l-41 -41 -39 38 c-21 21 -39 41 -39 44 0 9 55 66 75 78 22 13 31
15 22 6z m778 -23 c3 -5 2 -12 -3 -15 -5 -3 -9 1 -9 9 0 17 3 19 12 6z m2225
-85 c0 -2 -8 -10 -17 -17 -16 -13 -17 -12 -4 4 13 16 21 21 21 13z m-4293
-368 c-3 -8 -6 -5 -6 6 -1 11 2 17 5 13 3 -3 4 -12 1 -19z m2112 5 c70 -58 22
-172 -72 -173 -20 0 -40 11 -64 35 -30 30 -35 40 -29 67 10 52 52 88 102 88
25 0 50 -7 63 -17z m-2092 -95 c-3 -8 -6 -5 -6 6 -1 11 2 17 5 13 3 -3 4 -12
1 -19z m4167 1 c41 -33 49 -53 32 -93 -24 -59 -84 -74 -130 -33 -15 12 -29 36
-32 54 -5 27 -1 37 24 63 36 35 69 38 106 9z m-3537 -61 c-3 -8 -6 -5 -6 6 -1
11 2 17 5 13 3 -3 4 -12 1 -19z m1239 -230 c84 -265 95 -303 98 -323 3 -24 41
-129 87 -240 18 -44 49 -120 69 -169 20 -50 42 -90 50 -91 8 -2 67 -14 130
-28 63 -15 156 -33 205 -42 140 -24 198 -35 225 -45 14 -5 41 -11 60 -13 19
-2 36 -7 37 -13 3 -12 -342 -8 -462 6 -174 20 -337 69 -371 111 -7 8 -32 73
-57 144 -25 72 -85 222 -132 335 -48 113 -96 228 -107 257 -18 46 -23 51 -39
42 -18 -9 -59 3 -59 17 0 3 6 2 13 -2 6 -4 0 4 -15 18 -14 14 -36 44 -47 67
-20 39 -21 42 -4 48 10 4 72 26 138 49 94 33 122 39 128 29 4 -7 28 -78 53
-157z m306 145 c80 -71 37 -193 -68 -193 -34 0 -51 6 -76 29 -29 26 -33 36
-33 79 0 52 19 85 60 103 30 13 94 3 117 -18z m2315 -108 c11 -16 60 -145 78
-205 7 -24 7 -25 -10 -5 -16 20 -16 19 -11 -7 24 -109 47 -281 52 -373 l5
-110 -21 40 c-29 55 -72 182 -126 370 -25 88 -54 174 -65 192 -15 24 -69 164
-69 179 0 9 157 -68 167 -81z m664 68 c13 -16 12 -17 -3 -4 -10 7 -18 15 -18
17 0 8 8 3 21 -13z m-946 -19 c40 -18 70 -74 60 -111 -18 -75 -119 -100 -176
-44 -22 22 -29 39 -29 68 0 83 68 124 145 87z m-2778 -141 c81 -178 163 -384
163 -410 0 -13 -20 1 -25 18 -4 11 -9 18 -12 16 -2 -3 0 -14 6 -26 6 -11 7
-22 2 -25 -5 -3 -18 22 -31 55 -29 82 -129 279 -180 358 -22 35 -40 64 -38 66
5 4 62 23 71 24 5 1 24 -34 44 -76z m4023 18 c-6 -22 -58 -145 -115 -273 -355
-794 -383 -853 -399 -856 -9 -2 -16 2 -16 10 0 12 98 233 367 827 69 151 132
292 140 313 21 52 39 36 23 -21z m-746 -1 c19 -7 39 -38 84 -132 53 -111 113
-258 112 -276 0 -4 -8 2 -17 13 -15 19 -15 18 -9 -14 9 -48 4 -39 -43 73 -23
55 -70 155 -105 223 -35 67 -60 123 -56 123 5 0 20 -4 34 -10z m-2338 -64 c28
-28 34 -42 34 -75 0 -78 -49 -131 -120 -131 -108 0 -161 141 -80 213 25 22 40
27 81 27 45 0 55 -4 85 -34z m3951 12 c-3 -8 -6 -5 -6 6 -1 11 2 17 5 13 3 -3
4 -12 1 -19z m-6197 -23 c0 -5 -5 -3 -10 5 -5 8 -10 20 -10 25 0 6 5 3 10 -5
5 -8 10 -19 10 -25z m4015 -39 c68 -29 84 -125 30 -176 -14 -13 -41 -24 -68
-27 -39 -5 -48 -1 -80 27 -33 28 -37 37 -37 79 1 89 69 132 155 97z m-3680
-26 c9 -16 13 -30 11 -30 -3 0 -12 14 -21 30 -9 17 -13 30 -11 30 3 0 12 -13
21 -30z m4534 -35 c-1 -50 -14 -50 -41 2 l-26 52 34 -17 c22 -11 33 -24 33
-37z m-4835 19 c3 -8 2 -12 -4 -9 -6 3 -10 10 -10 16 0 14 7 11 14 -7z m2426
-99 c66 -34 92 -104 65 -173 -41 -102 -184 -109 -237 -11 -62 116 56 244 172
184z m1385 -75 c34 -21 65 -73 65 -110 0 -52 -46 -105 -101 -115 -77 -14 -149
48 -149 128 0 49 13 73 53 97 41 26 91 25 132 0z m-3635 -24 c0 -2 -8 -10 -17
-17 -16 -13 -17 -12 -4 4 13 16 21 21 21 13z m5217 -68 c93 -53 196 -138 243
-201 21 -27 48 -83 64 -134 16 -49 39 -111 52 -140 31 -66 30 -73 -5 -73 -47
0 -57 8 -91 74 -33 63 -148 226 -137 194 4 -10 2 -18 -3 -18 -6 0 -10 4 -10 9
0 5 -12 23 -26 40 -14 17 -22 36 -18 42 4 8 3 9 -4 5 -7 -4 -12 -2 -12 3 0 6
-9 20 -20 31 -22 22 -19 25 13 10 20 -9 20 -9 3 2 -10 7 -46 37 -80 67 -34 29
-71 60 -83 68 -19 12 -20 18 -11 44 13 38 22 36 125 -23z m-5258 15 c-7 -10
-14 -19 -15 -21 -1 -1 -7 5 -15 15 -8 9 -9 14 -4 11 6 -4 17 -3 25 3 22 13 24
11 9 -8z m2604 -47 c56 -24 80 -59 85 -124 3 -48 0 -63 -20 -92 -50 -73 -152
-78 -220 -10 -34 34 -38 43 -38 90 0 113 93 179 193 136z m2536 -46 c16 -10
89 -165 110 -234 23 -75 36 -196 20 -196 -5 0 -9 7 -9 15 0 35 -82 175 -102
175 -7 0 -2 -10 10 -23 12 -13 22 -29 22 -35 0 -6 9 -26 20 -44 11 -18 20 -37
20 -43 0 -13 -36 49 -112 189 -62 117 -62 113 -25 200 19 45 21 47 29 25 5
-13 13 -26 17 -29z m-3852 8 c-3 -8 -6 -5 -6 6 -1 11 2 17 5 13 3 -3 4 -12 1
-19z m2103 7 c85 -44 102 -162 34 -230 -30 -31 -62 -39 -120 -32 -98 11 -154
122 -104 205 40 65 125 91 190 57z m-391 -60 c101 -52 119 -181 36 -254 -30
-26 -44 -31 -88 -31 -70 0 -112 27 -139 87 -23 52 -20 108 7 149 38 58 124 81
184 49z m1120 -340 c-14 -8 -70 -22 -125 -31 -158 -27 -177 -26 -64 5 58 15
120 27 137 26 18 -2 30 1 27 6 -3 5 7 9 23 9 l28 -1 -26 -14z m-366 -82 c-7
-2 -19 -2 -25 0 -7 3 -2 5 12 5 14 0 19 -2 13 -5z m-2391 -280 c-10 -16 -28
-49 -40 -75 -21 -45 -22 -63 -22 -273 0 -239 5 -270 49 -309 l21 -19 -24 -26
c-39 -41 -46 -74 -46 -212 0 -149 11 -204 49 -249 27 -32 27 -33 58 -16 46 23
79 101 113 265 17 78 30 150 30 161 0 10 -11 32 -25 48 l-25 29 21 19 c12 10
27 31 35 46 18 34 66 234 93 386 l20 113 -20 52 c-11 29 -25 56 -30 62 -19 19
-7 21 79 9 118 -17 277 -17 392 0 52 8 96 14 97 12 1 -1 -9 -30 -23 -64 -28
-71 -29 -57 28 -342 31 -158 65 -252 98 -272 18 -11 17 -13 -6 -41 -13 -16
-24 -36 -24 -45 0 -30 59 -280 75 -317 26 -64 54 -95 85 -95 24 0 32 7 52 48
20 41 23 64 26 187 4 154 -4 195 -44 238 l-26 28 20 22 c46 49 52 84 52 300 0
219 -3 234 -57 320 -17 28 -20 38 -10 34 50 -19 221 -30 328 -21 63 6 115 10
116 9 2 -1 -5 -20 -14 -43 -16 -41 -15 -43 16 -129 45 -123 135 -343 141 -343
3 0 10 15 16 33 7 17 42 109 79 202 69 177 75 201 56 249 -6 16 -10 30 -9 31
2 1 37 -2 78 -7 77 -10 250 -4 330 12 25 4 47 7 49 5 2 -2 -5 -16 -16 -32 -52
-77 -54 -92 -53 -331 1 -204 2 -228 21 -263 11 -22 26 -42 35 -46 11 -4 8 -12
-16 -39 -43 -50 -53 -100 -47 -237 9 -173 54 -261 117 -227 37 20 69 104 100
261 l30 152 -24 38 -25 37 25 23 c31 29 54 105 104 344 l39 190 -29 68 c-24
56 -26 67 -12 63 43 -13 183 -26 270 -26 90 0 161 7 254 25 l36 7 -25 -63
c-30 -75 -29 -91 22 -348 37 -182 58 -243 93 -275 21 -18 21 -19 3 -45 -10
-14 -20 -33 -24 -43 -9 -26 70 -334 101 -391 15 -29 41 -59 60 -70 18 -11 32
-21 30 -22 -2 -2 -41 1 -87 5 -46 5 -149 12 -227 16 -79 4 -144 11 -144 15 0
5 4 9 9 9 16 0 51 66 51 96 0 16 -5 46 -11 67 l-10 38 -131 -3 -130 -3 -15
-44 c-18 -55 -11 -97 24 -133 l26 -27 -34 4 c-40 5 -487 15 -679 15 -127 0
-133 1 -111 16 49 35 61 84 61 265 0 174 -9 319 -19 319 -4 0 -19 -28 -35 -62
-48 -106 -196 -472 -196 -485 0 -38 -22 5 -84 165 -39 97 -92 224 -120 282
l-50 105 -12 -105 c-16 -134 -17 -315 -3 -380 7 -33 22 -62 44 -85 l32 -35
-312 0 c-171 0 -361 -3 -421 -6 -103 -6 -108 -5 -86 11 12 9 29 30 38 46 14
27 14 35 -1 85 l-16 54 -132 0 -133 0 -17 -54 c-19 -59 -13 -93 24 -132 l19
-21 -202 -6 c-199 -7 -569 -31 -638 -42 l-35 -6 27 23 c57 50 63 75 66 298 2
113 -1 237 -5 275 l-9 70 -22 -42 c-34 -65 -109 -251 -172 -424 l-56 -157 -16
42 c-9 22 -53 132 -97 243 -44 111 -93 228 -109 260 l-30 58 -8 -30 c-5 -16
-9 -138 -9 -270 0 -262 5 -293 55 -344 l29 -29 -97 -7 c-53 -4 -155 -15 -227
-26 -71 -10 -134 -19 -139 -19 -4 0 6 13 23 29 64 60 75 104 79 316 l4 190
-35 52 c-31 46 -33 54 -19 65 8 7 23 31 33 53 16 35 19 69 19 265 l-1 225 -39
74 -39 73 37 -6 c77 -12 310 -18 375 -9 48 7 67 7 64 -1 -32 -85 -32 -80 -3
-160 15 -41 54 -142 86 -223 l59 -148 19 45 c40 93 152 391 152 404 0 7 -7 30
-15 49 -8 20 -15 38 -15 40 0 2 21 0 48 -4 73 -12 269 -9 352 5 41 8 79 14 83
15 5 0 0 -11 -11 -26z m3983 -2 c175 0 296 4 343 13 65 11 72 11 67 -3 -17
-45 -25 -130 -26 -285 l0 -171 -48 101 c-27 55 -59 108 -72 117 -14 10 -43 17
-71 17 l-48 0 0 -183 c0 -198 10 -260 50 -302 l22 -24 -33 -41 -34 -42 3 -167
c3 -196 15 -253 70 -313 l37 -41 -32 6 c-18 4 -90 13 -160 22 -71 9 -165 20
-210 26 l-82 11 28 24 c48 40 63 94 69 244 5 150 -4 202 -43 244 l-25 27 20
22 c39 41 50 108 50 305 l0 185 -61 -6 c-77 -7 -100 -27 -154 -136 -22 -44
-42 -80 -45 -81 -3 0 -4 75 -3 167 1 147 -4 213 -22 274 -5 14 3 14 67 3 47
-9 169 -13 343 -13z m-5617 -179 c33 -41 -7 -103 -55 -86 -34 12 -47 35 -39
68 11 44 64 54 94 18z m6433 17 c52 -27 34 -108 -23 -109 -24 0 -58 35 -58 60
0 21 33 60 51 60 6 0 19 -5 30 -11z"/>
<path d="M6241 8634 c0 -11 3 -14 6 -6 3 7 2 16 -1 19 -3 4 -6 -2 -5 -13z"/>
<path d="M3890 7390 c-9 -6 -10 -10 -3 -10 6 0 15 5 18 10 8 12 4 12 -15 0z"/>
<path d="M3848 7343 c-18 -21 -31 -43 -25 -43 2 0 13 14 25 30 25 33 24 41 0
13z"/>
<path d="M4766 7564 c-23 -23 -20 -30 4 -9 11 10 20 20 20 22 0 7 -9 2 -24
-13z"/>
<path d="M4374 7488 c-16 -13 -30 -26 -32 -30 -2 -4 -9 -5 -17 -2 -7 3 -15 1
-19 -4 -13 -21 34 -3 70 26 44 36 42 44 -2 10z"/>
<path d="M4308 7313 c-18 -21 -31 -43 -25 -43 2 0 13 14 25 30 25 33 24 41 0
13z"/>
<path d="M4114 7288 l-19 -23 23 19 c21 18 27 26 19 26 -2 0 -12 -10 -23 -22z"/>
<path d="M4456 7137 c3 -10 9 -15 12 -12 3 3 0 11 -7 18 -10 9 -11 8 -5 -6z"/>
<path d="M4339 6893 c-13 -16 -12 -17 4 -4 9 7 17 15 17 17 0 8 -8 3 -21 -13z"/>
<path d="M7572 5538 c-12 -16 -34 -64 -213 -463 -131 -291 -156 -362 -126
-353 15 6 17 10 116 228 171 378 251 563 251 581 0 22 -13 25 -28 7z"/>
<path d="M7863 5391 c-28 -30 -356 -770 -349 -788 9 -22 34 1 54 47 27 66 193
435 264 588 49 106 68 156 61 163 -7 7 -16 4 -30 -10z"/>
<path d="M8130 5223 c-18 -38 -54 -117 -80 -178 -27 -60 -83 -189 -125 -285
-121 -274 -127 -290 -100 -290 18 0 35 33 129 251 41 96 110 256 155 357 45
100 81 189 81 197 0 37 -31 9 -60 -52z"/>
<path d="M3470 4258 c0 -3 11 -17 25 -32 14 -15 25 -23 25 -18 0 5 -11 19 -25
32 -14 13 -25 21 -25 18z"/>
<path d="M4096 2590 c-3 -14 -15 -79 -26 -145 -24 -134 -48 -261 -56 -287 -5
-16 4 -18 85 -18 66 0 91 3 91 13 0 6 -20 113 -44 237 -28 146 -46 216 -50
200z"/>
<path d="M6327 2578 c-3 -18 -22 -120 -41 -227 -20 -107 -36 -198 -36 -203 0
-4 38 -8 85 -8 63 0 85 3 85 13 0 17 -80 450 -84 454 -2 2 -6 -11 -9 -29z"/>
<path d="M3100 4061 c0 -6 5 -13 10 -16 6 -3 10 1 10 9 0 9 -4 16 -10 16 -5 0
-10 -4 -10 -9z"/>
</g>
</svg>
